<?xml version="1.0" standalone="no"?>
<!DOCTYPE svg PUBLIC "-//W3C//DTD SVG 20010904//EN"
 "http://www.w3.org/TR/2001/REC-SVG-20010904/DTD/svg10.dtd">
<svg version="1.0" xmlns="http://www.w3.org/2000/svg"
 width="1280.000000pt" height="1280.000000pt" viewBox="0 0 1280.000000 1280.000000"
 preserveAspectRatio="xMidYMid meet">
<metadata>
Created by potrace 1.15, written by Peter Selinger 2001-2017
</metadata>
<g transform="translate(0.000000,1280.000000) scale(0.100000,-0.100000)"
fill="#000000" stroke="none">
<path d="M2479 12009 c-87 -13 -312 -66 -397 -95 -284 -94 -596 -324 -786
-578 -177 -236 -246 -384 -311 -666 -19 -80 -39 -189 -44 -242 -15 -133 -15
-7896 -1 -8022 24 -209 99 -472 179 -630 105 -206 294 -437 466 -571 230 -179
389 -258 654 -325 258 -65 -91 -60 4296 -60 4372 0 4031 -5 4290 59 230 57
372 121 569 259 234 164 428 390 556 647 92 185 158 422 180 647 7 69 10 1412
7 4058 -3 3717 -4 3960 -20 4040 -73 350 -141 521 -304 752 -104 149 -224 273
-364 377 -217 163 -371 237 -609 297 -279 69 80 64 -4320 63 -2192 -1 -4010
-5 -4041 -10z m7354 -1429 c260 -30 537 -213 677 -448 57 -97 107 -225 120
-307 7 -49 10 -1075 8 -3425 l-3 -3355 -29 -75 c-102 -269 -258 -450 -481
-560 -123 -60 -177 -78 -274 -91 -50 -6 -1237 -9 -3401 -7 l-3325 3 -104 37
c-304 109 -510 316 -618 623 l-28 80 0 3390 0 3390 23 70 c57 169 135 295 254
411 91 89 164 140 272 189 101 45 166 65 244 75 103 12 6560 12 6665 0z"/>
<path d="M4400 9510 c-408 -34 -824 -123 -1109 -239 -68 -27 -134 -60 -147
-72 l-24 -22 0 -2092 c0 -1876 2 -2093 16 -2113 22 -31 58 -28 149 14 220 102
555 183 945 231 210 25 728 25 890 0 225 -35 443 -103 630 -197 161 -81 274
-163 405 -293 98 -99 125 -120 149 -120 18 0 36 8 48 22 17 22 18 96 18 2091
0 1137 -3 2082 -7 2100 -4 23 -35 63 -101 132 -276 287 -650 469 -1117 544
-117 19 -580 27 -745 14z"/>
<path d="M8015 9509 c-514 -54 -1009 -291 -1276 -611 l-49 -59 0 -2098 c0
-2020 1 -2099 18 -2114 40 -37 65 -23 184 96 287 288 693 464 1172 508 161 15
578 6 766 -15 375 -44 710 -126 939 -232 85 -39 120 -42 147 -13 19 21 19 72
22 2088 2 1495 0 2077 -8 2104 -11 36 -18 42 -95 77 -287 133 -735 234 -1194
270 -156 12 -509 11 -626 -1z"/>
<path d="M4545 4919 c-490 -21 -995 -126 -1316 -272 -118 -54 -109 -26 -109
-343 0 -261 1 -275 20 -294 27 -27 46 -25 135 15 164 75 465 161 695 199 415
69 860 79 1137 25 464 -89 950 -395 1306 -821 81 -98 92 -108 123 -108 29 0
40 8 91 73 81 102 261 285 373 379 249 210 582 385 867 457 293 74 760 72
1223 -5 259 -43 566 -131 711 -204 69 -35 101 -38 129 -10 19 19 20 33 20 293
0 203 -3 277 -12 290 -48 63 -511 210 -838 266 -291 50 -699 76 -921 60 -408
-31 -791 -182 -1159 -457 -107 -80 -372 -332 -452 -429 l-35 -43 -51 64 c-29
35 -110 120 -181 188 -425 412 -905 640 -1427 678 -76 5 -143 9 -149 8 -5 0
-86 -4 -180 -9z"/>
</g>
</svg>
