<?xml version="1.0" standalone="no"?>
<!DOCTYPE svg PUBLIC "-//W3C//DTD SVG 20010904//EN"
 "http://www.w3.org/TR/2001/REC-SVG-20010904/DTD/svg10.dtd">
<svg version="1.0" xmlns="http://www.w3.org/2000/svg"
 width="1280.000000pt" height="720.000000pt" viewBox="0 0 1280.000000 720.000000"
 preserveAspectRatio="xMidYMid meet">
<metadata>
Created by potrace 1.15, written by Peter Selinger 2001-2017
</metadata>
<g transform="translate(0.000000,720.000000) scale(0.100000,-0.100000)"
fill="#000000" stroke="none">
<path d="M9995 6362 c-286 -99 -395 -435 -224 -691 47 -71 104 -118 183 -152
33 -14 56 -30 56 -39 0 -9 -18 -132 -40 -275 -22 -143 -48 -311 -57 -372 l-16
-113 -34 0 c-38 0 -107 -32 -121 -56 -7 -13 -45 -5 -298 64 l-289 79 -37 109
c-48 139 -109 264 -189 390 l-63 99 -6 96 c-6 108 -24 146 -88 190 -29 20 -51
25 -121 28 l-85 3 -95 68 c-228 164 -487 270 -766 316 -133 22 -396 22 -535 0
-285 -44 -565 -160 -787 -325 l-81 -61 -2092 0 c-1906 0 -2094 -1 -2123 -16
-45 -23 -76 -53 -98 -96 -18 -36 -19 -88 -19 -1853 l0 -1815 -110 0 c-153 0
-210 -26 -251 -115 -15 -32 -19 -64 -19 -155 0 -157 28 -215 122 -255 34 -13
417 -15 3710 -15 l3673 0 39 23 c22 12 53 39 70 60 l31 39 0 148 0 148 -31 39
c-56 69 -92 83 -226 83 l-118 0 0 540 c0 391 3 540 11 540 10 0 249 -121 494
-250 50 -26 180 -94 290 -150 110 -57 250 -129 310 -160 61 -32 200 -104 310
-160 110 -57 220 -114 244 -127 87 -48 192 -47 257 2 37 28 56 61 233 406 123
240 131 260 131 313 0 62 -22 117 -62 152 -24 22 -76 50 -608 324 -173 89
-369 191 -435 225 -66 34 -196 102 -290 150 -93 48 -234 121 -313 162 l-143
75 143 137 c79 76 184 176 233 223 76 73 92 84 105 73 8 -7 32 -18 53 -25 55
-17 112 -4 157 36 l38 35 214 -84 c175 -70 213 -88 211 -103 0 -11 -9 -53 -18
-94 -21 -93 -15 -227 14 -320 91 -290 398 -474 696 -416 281 55 480 284 493
569 6 125 -9 201 -60 307 -33 68 -57 101 -122 165 -87 87 -162 131 -273 159
-78 20 -228 21 -305 0 -34 -8 -64 -12 -68 -7 -12 12 -460 869 -460 879 0 5 20
22 45 37 89 56 160 164 184 275 49 233 -75 457 -293 532 -76 26 -209 27 -281
2z m-2300 -617 c311 -55 628 -236 831 -473 228 -267 344 -581 344 -929 0 -382
-142 -719 -419 -993 -206 -204 -439 -332 -722 -395 -114 -25 -392 -32 -512
-11 -318 54 -581 190 -802 413 -518 524 -545 1348 -62 1914 234 274 571 446
967 493 65 8 285 -4 375 -19z m2820 -685 c127 -242 231 -444 233 -450 2 -5
-15 -18 -37 -29 -54 -28 -162 -130 -201 -191 -18 -28 -33 -50 -35 -50 -2 0
-65 24 -142 54 -76 30 -175 68 -220 86 l-83 31 0 45 c0 52 -11 76 -53 122
l-31 32 16 108 c9 59 35 232 59 385 l43 277 75 1 c42 1 87 5 101 9 14 4 30 8
35 9 6 0 114 -197 240 -439z m-4600 208 c-77 -124 -167 -343 -207 -505 l-13
-53 -430 -301 c-236 -166 -435 -303 -442 -306 -7 -3 -22 5 -35 16 -28 27 -92
44 -134 37 -17 -4 -48 -17 -67 -30 l-34 -23 -194 113 c-107 63 -193 119 -192
126 1 7 13 41 27 75 92 220 46 475 -117 649 -99 107 -207 161 -363 184 -155
23 -344 -35 -467 -141 -158 -136 -236 -373 -193 -579 62 -295 317 -492 618
-478 54 3 98 4 98 3 0 -2 29 -87 208 -612 l110 -321 -62 -31 c-184 -90 -283
-306 -231 -504 22 -85 53 -143 108 -203 127 -139 350 -174 529 -83 62 31 145
121 178 191 57 123 58 281 2 396 -33 68 -108 152 -166 186 l-44 26 48 152 c27
84 67 212 90 283 23 72 53 167 67 211 l26 82 47 0 c31 0 62 8 88 22 l39 22
319 -142 c176 -79 348 -156 384 -171 36 -15 144 -63 240 -108 l175 -80 70 -97
c85 -119 260 -298 373 -382 589 -438 1381 -477 1986 -98 48 31 90 56 92 56 2
0 4 -146 4 -325 l0 -325 -3025 0 -3025 0 0 1555 0 1555 1771 0 1770 0 -26 -42z
m3545 -598 l245 -67 0 -29 c0 -28 -7 -31 -240 -131 -132 -56 -243 -103 -247
-103 -5 0 -8 38 -8 84 0 46 -9 137 -20 201 -11 64 -20 119 -20 122 0 2 10 1
22 -3 12 -4 133 -37 268 -74z m-3786 -72 c-4 -18 -10 -109 -13 -203 l-6 -170
-45 -9 c-25 -5 -203 -49 -396 -97 -194 -49 -357 -89 -364 -89 -6 0 -10 4 -8
10 2 5 158 118 348 251 440 309 484 339 488 339 2 0 0 -15 -4 -32z m4046 -117
c0 -11 -476 -471 -487 -471 -5 0 -17 6 -27 13 -15 11 -16 20 -7 77 6 36 11 90
11 121 l0 56 138 58 c75 32 187 80 247 107 117 50 125 53 125 39z m-5552 -214
c34 -22 109 -66 295 -172 65 -38 67 -40 61 -72 -9 -50 4 -100 37 -137 24 -28
28 -38 20 -58 -6 -12 -30 -86 -54 -163 -25 -77 -72 -226 -106 -331 -34 -106
-61 -197 -61 -204 0 -9 -9 -10 -32 -5 -18 5 -69 9 -112 10 l-79 1 -98 290
c-54 159 -126 369 -160 467 -33 98 -59 180 -57 181 1 1 24 10 51 20 68 25 160
89 209 146 24 27 44 49 46 50 1 0 19 -11 40 -23z m1496 -119 c3 -13 10 -59 16
-103 22 -158 92 -380 166 -527 l34 -67 -78 35 c-42 20 -92 43 -110 51 -19 7
-61 27 -95 43 -33 17 -64 30 -68 30 -4 0 -142 60 -306 134 -164 73 -319 143
-345 154 -43 19 -46 22 -39 48 7 27 13 29 297 101 273 70 484 120 511 122 7 1
15 -9 17 -21z"/>
<path d="M7372 5405 c-194 -99 -134 -376 86 -402 92 -10 193 40 232 116 28 57
27 152 -3 206 -35 61 -101 97 -190 102 -63 4 -78 1 -125 -22z"/>
<path d="M7415 4730 c-126 -21 -245 -42 -262 -45 -31 -6 -33 -8 -33 -48 l0
-42 76 -29 c125 -46 114 0 114 -491 0 -491 12 -442 -117 -484 l-78 -26 -3 -47
-3 -48 380 0 381 0 0 48 0 49 -80 27 c-47 17 -87 37 -95 49 -13 18 -15 104
-15 574 0 520 -1 553 -17 552 -10 0 -121 -18 -248 -39z"/>
</g>
</svg>
