<?xml version="1.0" standalone="no"?>
<!DOCTYPE svg PUBLIC "-//W3C//DTD SVG 20010904//EN"
 "http://www.w3.org/TR/2001/REC-SVG-20010904/DTD/svg10.dtd">
<svg version="1.0" xmlns="http://www.w3.org/2000/svg"
 width="793.000000pt" height="1280.000000pt" viewBox="0 0 793.000000 1280.000000"
 preserveAspectRatio="xMidYMid meet">
<metadata>
Created by potrace 1.15, written by Peter Selinger 2001-2017
</metadata>
<g transform="translate(0.000000,1280.000000) scale(0.100000,-0.100000)"
fill="#000000" stroke="none">
<path d="M3335 12790 c-1269 -104 -2201 -794 -2724 -2017 -234 -549 -367
-1140 -433 -1938 -16 -192 -16 -1009 0 -1199 l12 -139 -55 -59 c-146 -158
-175 -362 -79 -564 72 -152 253 -259 409 -241 39 4 45 2 41 -12 -85 -289 -93
-711 -19 -955 10 -32 22 -59 28 -60 15 -2 87 108 175 269 139 252 231 374 422
560 165 161 364 306 476 347 29 11 44 27 25 28 -5 1 -19 9 -31 20 l-24 20 29
24 c138 116 113 472 -46 639 -52 55 -103 79 -173 80 -32 0 -58 1 -58 1 0 1 -7
36 -15 78 -62 327 -60 912 5 1358 92 628 292 1201 559 1602 195 290 469 572
764 782 37 27 70 47 72 44 2 -2 -13 -50 -35 -106 -22 -57 -40 -107 -40 -112 0
-6 9 -10 20 -10 11 0 20 -1 20 -3 0 -2 -15 -41 -34 -88 -29 -71 -38 -84 -59
-87 -24 -3 -34 -22 -83 -154 -5 -14 -1 -18 15 -18 12 0 21 -1 21 -3 0 -2 -15
-41 -33 -88 -28 -71 -37 -84 -55 -82 -17 2 -26 -10 -51 -77 -35 -91 -37 -100
-15 -100 18 0 16 -8 -25 -108 -20 -48 -33 -68 -48 -70 -15 -2 -28 -23 -52 -83
-36 -92 -37 -99 -15 -99 9 0 14 -4 12 -8 -1 -4 -16 -42 -32 -84 -21 -58 -33
-78 -49 -80 -16 -2 -29 -23 -54 -88 -38 -97 -38 -97 -19 -102 21 -5 -42 -158
-69 -168 -28 -11 -84 -158 -65 -170 18 -11 -44 -166 -69 -173 -23 -6 -85 -166
-70 -183 13 -16 -48 -171 -70 -177 -20 -5 -91 -189 -74 -194 14 -5 -43 -152
-68 -173 -38 -32 -138 -331 -165 -491 -18 -109 -15 -194 10 -253 16 -39 420
-446 481 -485 59 -38 213 -158 265 -206 25 -24 69 -58 98 -77 l52 -35 -97 -6
c-169 -11 -321 -61 -484 -157 -46 -28 -113 -64 -149 -81 -308 -147 -572 -387
-794 -724 -523 -791 -690 -1886 -415 -2716 44 -132 146 -339 215 -436 77 -106
342 -383 420 -439 73 -52 208 -117 285 -138 30 -8 88 -25 129 -39 272 -93 587
-34 889 164 41 27 77 47 80 43 6 -5 17 -1217 20 -2092 l1 -404 438 7 c240 4
438 9 440 10 2 2 -9 393 -23 870 -14 477 -24 869 -22 871 2 2 35 -14 73 -36
106 -60 758 -325 876 -354 273 -69 566 -52 868 51 117 39 344 154 460 231 431
288 779 715 1013 1243 139 314 196 518 249 899 18 136 16 545 -5 680 -8 57
-14 106 -12 108 2 2 21 -6 43 -18 84 -47 95 -121 39 -266 -33 -83 -35 -94 -25
-135 17 -69 14 -386 -6 -514 -16 -101 -46 -238 -63 -281 -11 -29 112 63 173
129 147 159 248 379 295 643 27 151 30 393 6 501 l-16 72 29 58 c69 138 95
314 87 572 -6 179 -23 321 -55 446 l-17 70 -55 11 -55 10 108 18 c120 20 252
53 340 86 45 17 77 40 141 103 189 186 213 379 87 696 -21 53 -22 67 -25 655
-3 624 -12 817 -56 1211 -155 1379 -591 2412 -1318 3117 -679 659 -1631 1017
-2747 1033 -143 2 -309 0 -370 -5z m1541 -1170 c145 -66 406 -235 454 -295 8
-10 -11 0 -42 23 -97 71 -256 171 -377 238 -126 70 -138 81 -35 34z m1358
-1625 c288 -691 471 -1500 517 -2277 27 -465 -38 -789 -148 -739 -31 14 -117
14 -185 0 -255 -54 -382 -312 -323 -655 9 -49 28 -125 43 -170 l27 -82 -55 1
c-116 1 -217 -77 -223 -171 -1 -23 -6 -42 -10 -42 -5 0 -151 58 -325 129 -174
71 -351 139 -392 151 -322 90 -700 56 -1040 -94 -57 -25 -105 -44 -107 -42 -5
5 142 225 225 337 l71 96 143 6 c148 7 304 27 349 45 70 28 143 147 239 386
l51 129 -22 23 -21 22 32 86 c18 47 35 86 38 86 3 0 14 -7 24 -16 16 -16 18
-15 24 2 4 11 20 53 36 94 33 88 34 92 9 114 -18 17 -18 19 10 93 38 98 38 97
59 78 22 -19 21 -20 60 85 l31 83 -21 22 -20 21 30 79 c39 100 39 99 61 79 18
-16 19 -15 27 7 56 149 54 141 37 159 -23 25 -23 24 34 174 11 28 12 28 31 11
22 -20 17 -28 65 105 24 63 24 65 6 85 -18 20 -18 22 12 100 35 94 34 92 49
77 7 -7 15 -12 19 -12 8 0 69 154 69 173 0 6 -7 18 -15 27 -14 15 -12 26 18
104 29 77 35 86 47 71 18 -22 24 -13 59 82 26 70 28 83 15 93 -20 17 -18 27
17 120 29 76 32 80 49 65 16 -15 19 -10 49 68 36 96 36 95 17 116 -13 14 -11
26 16 96 17 44 32 82 34 84 2 2 10 -2 18 -8 12 -11 18 -2 36 56 12 37 29 119
38 180 9 62 19 109 23 105 3 -4 23 -47 43 -97z"/>
</g>
</svg>
