<?xml version="1.0" standalone="no"?>
<!DOCTYPE svg PUBLIC "-//W3C//DTD SVG 20010904//EN"
 "http://www.w3.org/TR/2001/REC-SVG-20010904/DTD/svg10.dtd">
<svg version="1.0" xmlns="http://www.w3.org/2000/svg"
 width="1280.000000pt" height="1130.000000pt" viewBox="0 0 1280.000000 1130.000000"
 preserveAspectRatio="xMidYMid meet">
<metadata>
Created by potrace 1.15, written by Peter Selinger 2001-2017
</metadata>
<g transform="translate(0.000000,1130.000000) scale(0.100000,-0.100000)"
fill="#000000" stroke="none">
<path d="M2733 11285 c-307 -56 -554 -238 -696 -511 -70 -136 -98 -243 -104
-396 l-6 -127 -546 -3 -546 -4 -96 -26 c-358 -97 -618 -357 -710 -713 l-24
-90 0 -4295 c0 -4042 1 -4299 17 -4362 94 -366 358 -633 721 -731 l82 -22
5570 0 c5300 0 5574 1 5645 18 363 86 651 374 737 737 17 71 18 291 18 4365
l0 4290 -24 90 c-92 356 -349 614 -710 713 l-96 27 -2606 3 -2606 2 -6 113
c-10 163 -38 270 -111 414 -98 195 -296 373 -508 457 -162 64 -47 60 -1763 62
-1251 2 -1574 0 -1632 -11z m3146 -624 c100 -31 166 -90 215 -191 l31 -65 5
-275 c5 -252 7 -279 26 -321 31 -67 78 -114 146 -149 l61 -30 2732 0 c1930 0
2749 -3 2790 -11 116 -21 212 -95 261 -202 l29 -62 3 -268 c3 -256 3 -269 -15
-263 -10 3 -54 16 -98 28 l-80 23 -5585 0 -5585 0 -80 -23 c-44 -12 -88 -25
-98 -28 -18 -6 -18 7 -15 263 l3 268 29 62 c31 68 98 138 162 171 77 39 134
42 819 42 746 0 716 -3 804 76 29 26 62 69 78 102 l28 57 5 280 c5 266 7 282
28 326 48 98 132 169 231 195 35 10 387 13 1528 13 1429 1 1483 0 1542 -18z
m6093 -2433 c73 -34 142 -103 176 -176 l27 -57 0 -3550 0 -3550 -28 -60 c-36
-78 -104 -146 -181 -182 l-61 -28 -5505 0 -5505 0 -60 28 c-78 36 -146 104
-182 181 l-28 61 0 3550 0 3550 22 48 c46 99 117 164 216 198 50 18 280 18
5552 16 l5500 -2 57 -27z"/>
</g>
</svg>
