<?xml version="1.0" standalone="no"?>
<!DOCTYPE svg PUBLIC "-//W3C//DTD SVG 20010904//EN"
 "http://www.w3.org/TR/2001/REC-SVG-20010904/DTD/svg10.dtd">
<svg version="1.0" xmlns="http://www.w3.org/2000/svg"
 width="1280.000000pt" height="1280.000000pt" viewBox="0 0 1280.000000 1280.000000"
 preserveAspectRatio="xMidYMid meet">
<metadata>
Created by potrace 1.15, written by Peter Selinger 2001-2017
</metadata>
<g transform="translate(0.000000,1280.000000) scale(0.100000,-0.100000)"
fill="#000000" stroke="none">
<path d="M2507 11729 c-87 -20 -163 -82 -208 -169 l-24 -45 -3 -5097 c-2
-5086 -2 -5097 18 -5151 28 -74 79 -130 152 -166 l61 -31 3888 0 c3856 0 3889
0 3941 20 65 24 138 95 170 165 l23 50 3 4231 2 4232 -842 678 c-464 374 -917
739 -1008 812 -91 73 -263 212 -382 307 l-217 175 -2768 -1 c-1572 -1 -2784
-5 -2806 -10z"/>
</g>
</svg>
