<?xml version="1.0" standalone="no"?>
<!DOCTYPE svg PUBLIC "-//W3C//DTD SVG 20010904//EN"
 "http://www.w3.org/TR/2001/REC-SVG-20010904/DTD/svg10.dtd">
<svg version="1.0" xmlns="http://www.w3.org/2000/svg"
 width="1280.000000pt" height="435.000000pt" viewBox="0 0 1280.000000 435.000000"
 preserveAspectRatio="xMidYMid meet">
<metadata>
Created by potrace 1.15, written by Peter Selinger 2001-2017
</metadata>
<g transform="translate(0.000000,435.000000) scale(0.100000,-0.100000)"
fill="#000000" stroke="none">
<path d="M0 4170 l0 -180 55 0 55 0 0 -275 0 -275 -55 0 -55 0 0 -45 0 -45 36
0 c33 0 36 2 30 24 -5 20 -1 26 26 35 17 6 33 11 34 11 2 0 10 -16 18 -35 l15
-35 325 0 325 0 -17 45 -16 45 -153 0 -153 0 0 275 0 275 181 -2 180 -3 -1
-240 0 -240 29 -75 28 -75 95 -3 94 -3 -4 -34 -4 -35 -69 0 c-37 0 -70 -3 -72
-7 -3 -5 103 -282 234 -618 132 -335 255 -650 273 -699 l34 -89 11 34 c6 19
137 333 290 699 153 366 277 668 274 673 -2 4 -76 7 -164 7 l-159 0 0 35 0 35
539 0 539 0 16 40 c9 22 16 42 16 45 0 2 -42 6 -92 7 l-93 3 0 270 0 270 183
3 182 2 -2 -272 -3 -273 -80 -5 c-62 -4 -74 -7 -52 -13 22 -6 27 -12 22 -25
-20 -48 -19 -52 20 -52 30 0 36 -3 31 -16 -3 -9 -6 -24 -6 -35 0 -16 -7 -19
-45 -19 -39 0 -46 -4 -59 -28 -35 -67 -1026 -2383 -1026 -2397 0 -12 12 -15
54 -15 54 0 55 0 58 33 l3 32 180 0 180 0 3 -273 2 -272 -182 2 -183 3 0 208
0 207 -71 0 c-56 0 -74 -4 -87 -18 -10 -10 -17 -24 -17 -31 0 -9 -8 -11 -22
-7 -13 3 -29 6 -36 6 -8 0 -12 9 -10 22 3 22 -1 23 -59 26 l-63 3 0 -211 0
-210 -180 0 -180 0 0 149 0 149 30 12 c17 7 29 15 26 17 -2 2 -18 -2 -34 -11
l-30 -15 -17 47 c-27 71 -32 75 -92 70 l-53 -5 0 34 c0 32 1 33 40 33 23 0 40
5 40 11 0 6 -226 555 -502 1220 l-501 1209 -54 0 -53 0 0 -1184 0 -1185 52 -3
53 -3 3 -272 2 -273 -55 0 -55 0 0 -180 0 -180 6399 0 6399 0 0 2175 0 2175
-6399 0 -6399 0 0 -180z m1560 -455 l0 -275 -180 0 -180 0 0 275 0 275 180 0
180 0 0 -275z m728 3 l-3 -273 -180 0 -180 0 -3 260 c-1 143 0 265 3 272 3 10
48 13 185 13 l180 0 -2 -272z m1442 -3 l0 -276 -160 3 -161 3 3 -50 3 -50 403
-3 402 -2 0 -30 c0 -26 -3 -30 -29 -30 -16 0 -43 -3 -60 -6 l-31 -6 0 -1182 0
-1181 180 3 180 3 0 -276 0 -275 -180 0 -180 0 0 96 0 96 -35 -4 -35 -4 0 113
0 113 -150 0 -150 0 0 -205 0 -205 -180 0 -180 0 0 154 c0 152 0 155 22 158
13 2 23 11 24 21 1 12 1 13 -3 2 -3 -10 -17 -15 -39 -15 -34 0 -34 0 -34 45
l0 45 -62 1 c-35 1 -69 1 -75 0 -8 -1 -13 11 -13 34 l0 35 75 0 75 0 0 1215 0
1214 -35 7 c-19 3 -46 4 -60 2 -23 -5 -25 -2 -25 28 l0 34 60 0 60 0 0 105 c0
87 3 105 15 105 13 0 15 31 15 220 l0 220 180 0 180 0 0 -275z m730 0 l0 -275
-180 0 -180 0 0 275 0 275 180 0 180 0 0 -275z m728 3 l-3 -273 -113 0 -113 0
3 -50 3 -50 515 -6 c536 -5 571 -8 753 -55 363 -93 678 -337 831 -641 86 -171
119 -331 119 -573 1 -514 -202 -877 -621 -1116 l-77 -44 78 0 77 0 0 -275 0
-275 -180 0 -181 0 3 240 c2 196 1 239 -10 235 -35 -13 -217 -45 -297 -51 -49
-4 -84 -9 -77 -11 9 -4 12 -54 12 -209 l0 -204 -180 0 -180 0 0 205 0 205
-182 0 -183 0 3 -205 3 -205 -183 2 -183 3 0 203 0 202 -105 1 c-58 1 -110 1
-115 0 -7 0 -9 13 -7 34 l4 35 108 0 109 0 3 33 c3 28 7 32 36 35 l32 3 0
1179 0 1179 -35 7 c-19 3 -49 4 -65 2 -28 -4 -30 -3 -30 29 l0 33 65 0 65 0 0
49 c0 49 -1 50 -32 53 l-33 3 -3 260 c-1 143 0 265 3 272 3 10 48 13 185 13
l180 0 -2 -272z m722 -3 l0 -275 -180 0 -180 0 0 275 0 275 180 0 180 0 0
-275z m730 0 l0 -275 -180 0 -180 0 0 275 0 275 180 0 180 0 0 -275z m725 0
l0 -270 -180 0 -180 0 -3 273 -2 272 182 -2 183 -3 0 -270z m725 0 l0 -275
-90 0 -90 0 -2 58 c-1 54 -2 54 -6 12 -2 -25 -1 -73 3 -108 l7 -62 671 2 672
3 3 33 c3 29 6 32 38 32 32 0 34 -2 34 -35 l0 -35 53 0 c53 0 54 0 49 -29 -4
-26 -8 -29 -53 -35 l-49 -7 -2 -277 -3 -277 -395 -5 -395 -5 0 -175 0 -175
328 -3 327 -2 0 55 0 55 35 0 35 0 0 -55 0 -55 49 0 48 0 -6 -32 c-6 -30 -10
-33 -49 -36 l-42 -3 0 -230 0 -229 110 0 110 0 0 -35 0 -34 -107 -3 -108 -3
-3 -52 c-3 -44 -6 -53 -22 -53 -10 0 -25 -3 -34 -6 -12 -5 -16 5 -18 53 l-3
58 -325 0 -325 0 0 -170 0 -170 363 -3 362 -2 0 35 c0 33 2 35 35 35 33 0 35
-2 35 -35 0 -35 0 -35 44 -35 43 0 44 0 41 -32 -2 -31 -5 -33 -44 -36 l-41 -3
0 -212 0 -212 107 0 108 0 0 -270 0 -270 -183 -3 -183 -2 3 205 3 205 -182 0
-183 0 0 -205 0 -205 -180 0 -180 0 0 205 0 205 -185 0 -185 0 0 -205 0 -205
-180 0 -180 0 -2 208 c-3 191 -4 207 -20 204 -14 -2 -18 4 -18 33 0 28 4 35
20 35 16 0 20 7 20 35 l0 35 50 0 50 0 0 1180 0 1179 -35 7 c-19 3 -42 4 -50
0 -12 -4 -15 3 -15 29 l0 35 50 0 50 0 0 50 0 50 -50 0 -50 0 0 275 0 275 180
0 180 0 0 -275z m730 0 l0 -275 -180 0 -180 0 0 275 0 275 180 0 180 0 0 -275z
m725 0 l0 -270 -180 0 -180 0 -3 273 -2 272 182 -2 183 -3 0 -270z m725 0 l0
-275 -180 0 -180 0 0 275 0 275 180 0 180 0 0 -275z m728 3 l-3 -273 -180 0
-180 0 -3 260 c-1 143 0 265 3 272 3 10 48 13 185 13 l180 0 -2 -272z m702 -3
l0 -275 -180 0 -180 0 0 275 0 275 180 0 180 0 0 -275z m730 0 l0 -275 -180 0
-180 0 0 275 0 275 180 0 180 0 0 -275z m-769 -344 c281 -57 522 -185 719
-381 266 -267 383 -582 367 -990 -6 -161 -24 -270 -68 -405 -98 -305 -327
-564 -637 -719 -93 -47 -244 -101 -311 -112 l-36 -6 3 -199 3 -199 -181 0
-181 0 3 180 3 180 -30 0 c-42 1 -222 17 -272 26 l-43 7 0 -197 0 -196 -182 2
-183 3 -2 254 -2 253 -83 50 c-341 203 -540 485 -614 873 -24 122 -24 395 -1
520 65 354 257 639 571 847 188 124 391 196 643 228 111 14 404 3 514 -19z
m-10830 -2736 l0 -270 -181 -3 -180 -2 0 268 c0 148 3 272 7 276 4 3 85 5 180
4 l174 -3 0 -270z m2177 -3 l2 -272 -182 2 -183 3 -2 264 c-1 145 0 268 3 273
3 4 85 7 182 6 l177 -3 3 -273z m4357 3 l0 -270 -182 -3 -183 -2 0 268 c0 148
3 272 7 276 4 3 86 5 182 4 l176 -3 0 -270z m2905 0 l0 -275 -180 0 -180 0 0
275 0 275 180 0 180 0 0 -275z m2160 0 l0 -275 -180 0 -180 0 0 260 0 259 28
15 c20 12 64 15 180 16 l152 0 0 -275z"/>
<path d="M3415 3259 c-4 -6 -4 -26 0 -46 l6 -35 17 23 c8 13 21 27 26 31 6 4
20 14 31 22 19 14 17 15 -27 16 -26 0 -50 -5 -53 -11z"/>
<path d="M3985 3230 c21 -22 40 -40 42 -40 2 0 3 18 3 40 l0 40 -42 0 -42 0
39 -40z"/>
<path d="M3984 2404 c-60 -73 -60 -71 -10 -96 25 -12 48 -19 51 -16 3 3 5 41
3 84 l-3 78 -41 -50z"/>
<path d="M3416 1834 c-10 -26 -6 -228 4 -244 5 -8 10 -10 10 -4 0 6 29 31 65
57 48 34 65 53 65 70 0 24 -35 61 -102 110 -30 22 -37 24 -42 11z"/>
<path d="M4007 1298 c-9 -35 -25 -116 -36 -180 -18 -100 -36 -160 -76 -260 -6
-16 0 -18 64 -18 l71 0 0 260 c0 143 -2 260 -4 260 -2 0 -11 -28 -19 -62z"/>
<path d="M5970 3257 c0 -1 9 -20 20 -42 11 -22 20 -49 20 -61 0 -21 6 -23 78
-28 257 -20 398 -45 507 -90 19 -8 35 -14 35 -12 0 6 -114 73 -175 104 -86 43
-226 88 -349 111 -102 20 -136 24 -136 18z"/>
<path d="M4960 2770 c1 -160 5 -258 11 -255 5 4 9 12 9 18 0 21 105 229 158
315 29 46 52 85 52 88 0 2 -20 4 -45 4 -57 0 -102 19 -139 59 -17 17 -34 31
-38 31 -5 0 -8 -117 -8 -260z"/>
<path d="M5517 2747 c-3 -9 6 -23 23 -36 38 -28 42 -27 38 12 -2 26 -8 33 -29
35 -16 2 -29 -3 -32 -11z"/>
<path d="M6080 2739 c163 -72 240 -127 302 -217 l31 -46 14 38 c19 58 53 106
86 126 28 17 28 19 9 29 -24 13 -261 57 -352 66 -36 3 -76 8 -90 10 l-25 4 25
-10z"/>
<path d="M5650 2053 l0 -656 123 6 c357 19 559 160 633 442 25 96 26 341 1
438 -72 287 -290 427 -664 427 l-93 0 0 -657z"/>
<path d="M7032 1786 c-67 -72 -95 -133 -112 -243 -19 -125 -33 -198 -42 -218
-5 -11 5 -4 22 15 39 44 115 191 146 282 25 74 58 218 51 225 -2 2 -31 -26
-65 -61z"/>
<path d="M5825 1340 l-80 -5 -3 -42 c-2 -32 0 -43 11 -43 8 0 61 22 118 49
114 53 116 51 -46 41z"/>
<path d="M4960 1053 l0 -148 112 0 113 0 3 -32 c3 -29 7 -33 32 -33 l29 0 -30
45 c-17 25 -43 52 -57 59 -49 26 -120 107 -158 182 -20 41 -39 74 -41 74 -2 0
-3 -66 -3 -147z"/>
<path d="M6440 895 c-14 -8 -20 -14 -15 -14 6 0 21 6 35 14 14 8 21 14 15 14
-5 0 -21 -6 -35 -14z"/>
<path d="M5833 773 c9 -2 25 -2 35 0 9 3 1 5 -18 5 -19 0 -27 -2 -17 -5z"/>
<path d="M4960 511 c0 -6 -15 -12 -32 -14 -32 -4 -32 -4 5 -5 27 -2 37 2 37
13 0 8 -2 15 -5 15 -3 0 -5 -4 -5 -9z"/>
<path d="M7928 3274 c-15 -5 -18 -18 -18 -81 l0 -76 29 40 c15 21 48 56 71 76
34 28 39 37 24 37 -10 0 -35 2 -54 4 -19 3 -43 2 -52 0z"/>
<path d="M8919 3271 l-37 -6 64 -43 64 -44 25 30 c13 16 39 36 57 43 l33 14
-50 7 c-60 8 -107 7 -156 -1z"/>
<path d="M9024 1944 c-8 -4 -8 -15 2 -42 7 -20 13 -47 14 -59 0 -22 4 -23 75
-23 l75 0 0 50 0 50 -40 0 c-22 0 -57 7 -77 15 -19 8 -36 15 -37 14 0 0 -6 -3
-12 -5z"/>
<path d="M8790 1322 c0 -12 36 -29 90 -43 50 -12 349 -17 368 -5 7 4 12 18 12
32 l0 24 -235 0 c-129 0 -235 -4 -235 -8z"/>
<path d="M7906 1008 c-3 -29 -6 -64 -6 -78 l0 -25 95 3 95 3 0 -35 0 -36 155
0 154 0 -21 38 c-12 20 -23 39 -24 40 -1 2 -43 -1 -92 -7 -125 -15 -181 -3
-236 53 -23 23 -57 54 -77 69 l-36 27 -7 -52z"/>
<path d="M8850 907 c-27 -16 -35 -28 -32 -44 3 -23 6 -23 139 -23 l137 0 -93
45 c-51 25 -98 45 -104 45 -7 0 -28 -10 -47 -23z"/>
<path d="M9448 773 c7 -3 16 -2 19 1 4 3 -2 6 -13 5 -11 0 -14 -3 -6 -6z"/>
<path d="M9283 703 c9 -2 25 -2 35 0 9 3 1 5 -18 5 -19 0 -27 -2 -17 -5z"/>
<path d="M7900 626 c0 -74 0 -75 -27 -79 -26 -4 -26 -4 5 -6 l32 -1 0 80 c0
44 -2 80 -5 80 -3 0 -5 -33 -5 -74z"/>
<path d="M11218 2724 c-148 -26 -268 -92 -370 -202 -134 -146 -191 -328 -167
-539 39 -348 268 -564 615 -580 220 -11 373 43 510 181 139 139 189 276 181
496 -5 150 -28 228 -97 334 -117 180 -278 288 -467 316 -86 12 -110 11 -205
-6z"/>
<path d="M12521 2663 c15 -34 24 -84 30 -173 5 -69 14 -156 20 -195 10 -69 82
-301 100 -319 12 -14 12 148 -1 254 -16 128 -55 263 -110 378 -49 103 -77 142
-39 55z"/>
<path d="M10720 2504 c-14 -10 -44 -35 -67 -57 -38 -37 -40 -42 -31 -71 5 -17
12 -37 14 -45 3 -8 20 19 40 59 19 40 44 85 55 101 24 34 22 35 -11 13z"/>
<path d="M9996 1900 c8 -96 44 -237 87 -344 98 -245 308 -472 554 -599 80 -41
99 -47 153 -47 l62 0 -72 77 c-62 67 -86 84 -170 125 -156 75 -260 186 -305
323 -11 36 -44 94 -81 145 -81 111 -159 237 -201 325 l-33 70 6 -75z"/>
<path d="M11648 743 c6 -2 18 -2 25 0 6 3 1 5 -13 5 -14 0 -19 -2 -12 -5z"/>
<path d="M11573 733 c9 -2 25 -2 35 0 9 3 1 5 -18 5 -19 0 -27 -2 -17 -5z"/>
<path d="M11463 723 c15 -2 37 -2 50 0 12 2 0 4 -28 4 -27 0 -38 -2 -22 -4z"/>
<path d="M198 3273 c-3 -4 28 -86 68 -182 l72 -174 7 96 c7 90 6 102 -22 179
l-29 83 -46 3 c-25 2 -48 -1 -50 -5z"/>
<path d="M811 3271 c-10 -6 5 -52 64 -192 77 -186 210 -469 219 -469 2 0 -10
37 -28 83 -19 45 -77 193 -130 329 -54 137 -101 250 -105 252 -4 3 -13 1 -20
-3z"/>
<path d="M2301 3248 c-4 -13 -11 -36 -15 -53 l-7 -30 21 25 c11 14 20 37 20
53 0 33 -8 35 -19 5z"/>
<path d="M1911 2761 c-97 -214 -356 -851 -345 -851 2 0 27 35 55 77 31 45 84
152 131 262 44 102 97 219 118 259 29 53 44 97 55 165 9 51 21 111 27 135 6
23 9 44 7 46 -2 2 -24 -39 -48 -93z"/>
<path d="M2437 2608 c-46 -43 -46 -44 -147 -352 -55 -170 -99 -310 -98 -311 5
-5 300 696 295 701 -2 3 -25 -15 -50 -38z"/>
<path d="M1170 1170 c-14 -4 -42 -8 -64 -9 -26 -1 -37 -5 -33 -13 2 -7 31 -76
63 -153 45 -108 60 -134 62 -112 3 22 8 27 31 27 45 0 55 37 25 96 -13 26 -24
64 -24 85 0 37 -17 90 -29 88 -3 -1 -17 -5 -31 -9z"/>
<path d="M1985 780 c-19 -8 -19 -9 3 -9 12 -1 22 4 22 9 0 6 -1 10 -2 9 -2 0
-12 -4 -23 -9z"/>
</g>
</svg>
