<?xml version="1.0" standalone="no"?>
<!DOCTYPE svg PUBLIC "-//W3C//DTD SVG 20010904//EN"
 "http://www.w3.org/TR/2001/REC-SVG-20010904/DTD/svg10.dtd">
<svg version="1.0" xmlns="http://www.w3.org/2000/svg"
 width="1280.000000pt" height="1002.000000pt" viewBox="0 0 1280.000000 1002.000000"
 preserveAspectRatio="xMidYMid meet">
<metadata>
Created by potrace 1.15, written by Peter Selinger 2001-2017
</metadata>
<g transform="translate(0.000000,1002.000000) scale(0.100000,-0.100000)"
fill="#000000" stroke="none">
<path d="M6280 10013 c-507 -35 -900 -109 -1296 -244 -210 -71 -345 -129 -549
-233 -391 -199 -684 -414 -1006 -735 -473 -473 -834 -1034 -1160 -1805 -92
-217 -89 -198 -89 -542 l0 -302 -53 -17 c-335 -109 -708 -316 -993 -551 -112
-92 -312 -292 -406 -404 -781 -934 -948 -2240 -427 -3329 372 -777 1024 -1353
1839 -1624 117 -39 329 -92 405 -102 157 -19 326 79 398 232 l32 68 5 3105 5
3105 51 116 c84 189 227 475 304 609 549 953 1278 1521 2241 1744 408 94 783
125 1114 91 1113 -114 1892 -538 2488 -1357 207 -285 428 -697 600 -1118 l30
-75 6 -3110 6 -3110 32 -68 c78 -164 250 -255 428 -227 88 14 280 64 390 101
810 276 1454 848 1824 1620 332 693 390 1491 164 2239 -242 801 -812 1480
-1564 1865 -127 64 -324 147 -431 181 l-57 17 -3 341 -3 341 -64 155 c-294
718 -605 1241 -1000 1684 -542 608 -1246 1017 -2086 1211 -407 94 -898 148
-1175 128z"/>
<path d="M3718 6299 c-168 -23 -316 -167 -348 -338 -15 -79 -14 -5552 1 -5623
51 -240 299 -390 528 -319 125 39 209 112 264 229 l32 67 0 2840 0 2840 -23
49 c-85 183 -259 281 -454 255z"/>
<path d="M8931 6298 c-86 -12 -165 -52 -232 -118 -65 -64 -104 -140 -118 -231
-7 -43 -11 -953 -11 -2804 0 -2986 -3 -2817 56 -2925 33 -60 114 -139 175
-170 165 -85 348 -58 485 71 64 62 110 152 124 245 13 95 13 5473 0 5569 -35
240 -241 396 -479 363z"/>
</g>
</svg>
