<?xml version="1.0" standalone="no"?>
<!DOCTYPE svg PUBLIC "-//W3C//DTD SVG 20010904//EN"
 "http://www.w3.org/TR/2001/REC-SVG-20010904/DTD/svg10.dtd">
<svg version="1.0" xmlns="http://www.w3.org/2000/svg"
 width="1280.000000pt" height="892.000000pt" viewBox="0 0 1280.000000 892.000000"
 preserveAspectRatio="xMidYMid meet">
<metadata>
Created by potrace 1.15, written by Peter Selinger 2001-2017
</metadata>
<g transform="translate(0.000000,892.000000) scale(0.100000,-0.100000)"
fill="#000000" stroke="none">
<path d="M1430 8911 c-14 -4 -74 -11 -135 -15 -133 -8 -178 -19 -273 -62 -182
-83 -316 -248 -356 -439 -9 -38 -29 -232 -45 -430 -39 -468 -93 -1135 -126
-1550 -14 -181 -48 -593 -75 -915 -61 -709 -172 -2020 -240 -2830 -28 -327
-73 -856 -100 -1175 -91 -1072 -85 -984 -71 -1064 26 -145 126 -288 252 -359
32 -18 92 -41 135 -52 76 -20 121 -20 4748 -20 5186 0 4739 -6 4891 69 177 88
312 263 344 450 6 31 20 173 32 316 l22 260 42 50 c23 28 56 75 73 105 16 30
384 744 817 1585 434 842 927 1800 1097 2130 170 330 315 619 323 643 20 58
19 114 -4 170 -10 26 -23 63 -29 82 -7 26 -10 29 -11 13 -1 -28 -1 -28 -46 -1
-81 47 -96 48 -1000 48 l-850 0 8 108 c8 112 78 947 123 1470 28 328 26 373
-16 484 -58 155 -208 280 -378 317 -38 8 -663 11 -2282 11 l-2230 0 0 63 c0
34 -7 89 -14 122 -10 40 -13 87 -9 142 5 75 4 87 -21 137 -17 35 -42 66 -69
86 -87 64 74 60 -2321 59 -1200 0 -2192 -4 -2206 -8z m1495 -1209 c655 -2
2533 -6 4175 -10 l2985 -7 66 -32 c114 -57 200 -178 215 -304 5 -48 -77 -1133
-92 -1206 l-4 -23 -3626 0 c-3909 0 -3675 3 -3805 -48 -128 -50 -267 -150
-333 -241 -31 -41 -465 -879 -1402 -2701 -59 -114 -64 -121 -59 -80 3 25 39
441 80 925 88 1023 222 2588 265 3085 17 190 37 375 44 412 24 109 66 177 129
210 45 23 133 39 157 29 8 -3 551 -7 1205 -9z m9273 -2155 c31 -17 32 -18 18
-50 -14 -33 -1348 -2521 -1365 -2547 -6 -8 8 25 29 74 22 49 38 91 35 94 -3 3
-5 0 -5 -6 0 -18 -280 -17 -281 1 -3 24 -17 -49 -18 -92 0 -24 -4 -41 -7 -38
-4 4 -2 68 5 144 23 269 110 1306 158 1871 l48 573 675 -3 c625 -3 677 -4 708
-21z m52 -227 c-74 -145 -1685 -3139 -1702 -3163 -11 -15 -22 -26 -24 -24 -8
8 16 58 45 95 23 30 999 1839 1565 2903 72 135 132 243 134 238 2 -4 -6 -26
-18 -49z m-2490 -4455 c-28 -33 -164 -116 -228 -137 l-67 -23 -4063 -3 c-2651
-1 -4069 1 -4080 8 -11 6 1379 9 4053 10 3622 0 4077 2 4130 15 73 19 157 63
215 114 44 38 65 47 40 16z m-135 -10 c-22 -14 -65 -35 -95 -48 l-55 -22
-4140 0 -4140 0 -55 22 c-30 13 -68 34 -85 48 l-30 24 4320 0 4320 0 -40 -24z
m-8347 -142 c-10 -2 -26 -2 -35 0 -10 3 -2 5 17 5 19 0 27 -2 18 -5z"/>
</g>
</svg>
