<?xml version="1.0" standalone="no"?>
<!DOCTYPE svg PUBLIC "-//W3C//DTD SVG 20010904//EN"
 "http://www.w3.org/TR/2001/REC-SVG-20010904/DTD/svg10.dtd">
<svg version="1.0" xmlns="http://www.w3.org/2000/svg"
 width="1280.000000pt" height="1280.000000pt" viewBox="0 0 1280.000000 1280.000000"
 preserveAspectRatio="xMidYMid meet">
<metadata>
Created by potrace 1.15, written by Peter Selinger 2001-2017
</metadata>
<g transform="translate(0.000000,1280.000000) scale(0.100000,-0.100000)"
fill="#000000" stroke="none">
<path d="M9325 10044 c-587 -49 -1083 -260 -1516 -647 -354 -315 -585 -690
-694 -1122 -18 -71 -39 -174 -46 -227 l-12 -98 -621 0 -621 0 -40 72 c-96 171
-291 398 -455 531 -333 269 -736 433 -1174 477 -149 16 -442 8 -591 -15 -466
-72 -870 -279 -1210 -620 -393 -393 -584 -878 -562 -1425 16 -406 136 -741
381 -1067 85 -114 250 -284 361 -375 288 -233 644 -388 1028 -449 l77 -12 0
-916 c0 -776 2 -920 14 -937 13 -18 30 -19 245 -22 l231 -3 0 -319 c0 -318 0
-319 22 -334 20 -14 223 -16 1964 -16 l1941 0 19 21 c17 19 18 39 15 335 l-3
314 379 0 c326 0 382 2 401 16 21 15 22 20 22 215 0 192 1 199 20 199 19 0 20
-7 20 -100 0 -97 1 -100 31 -135 l31 -35 408 0 409 0 15 22 c14 20 16 125 16
931 0 913 -1 937 -34 959 -6 4 -194 8 -417 8 -505 0 -459 18 -459 -181 0 -132
-1 -139 -20 -139 -19 0 -20 7 -20 248 l0 249 83 -18 c571 -124 1253 -41 1760
215 231 117 429 260 631 456 428 416 654 900 685 1469 45 807 -283 1486 -962
1995 -322 240 -703 395 -1137 461 -102 16 -504 28 -615 19z m800 -689 c295
-85 711 -373 889 -615 43 -58 96 -150 96 -165 0 -11 -478 -240 -604 -290 -108
-43 -124 -47 -176 -42 -184 20 -415 178 -469 322 -20 52 -21 76 -21 379 0 178
3 351 7 386 l6 63 91 -6 c50 -3 131 -18 181 -32z m-965 16 l25 -7 37 -344 c43
-400 44 -430 21 -501 -14 -44 -34 -71 -103 -141 -69 -70 -101 -94 -165 -125
-77 -37 -84 -38 -185 -38 -95 0 -114 4 -205 37 -55 20 -244 89 -420 153 -176
64 -333 122 -348 127 l-28 10 41 75 c181 336 656 678 1037 747 82 15 250 19
293 7z m-4616 -975 c161 -45 351 -151 506 -282 62 -53 160 -154 160 -166 0 -2
-223 -2 -495 0 l-495 2 0 164 c0 89 3 198 7 241 l6 78 111 -6 c72 -4 142 -15
200 -31z m-873 -33 c0 -32 2 -65 3 -73 2 -8 6 -90 10 -182 6 -146 5 -168 -8
-168 -26 0 -36 -36 -36 -132 0 -86 -2 -98 -28 -139 -43 -67 -134 -144 -200
-169 -41 -16 -79 -22 -137 -22 -78 -1 -88 2 -390 117 -170 64 -311 119 -313
120 -6 5 67 144 100 194 46 66 181 204 266 272 126 101 276 177 411 209 46 11
170 23 289 29 l32 1 1 -57z m7738 -475 c116 -341 -54 -1032 -326 -1328 l-50
-54 -227 209 c-125 114 -247 233 -270 264 -83 108 -130 225 -142 355 -6 65 -4
77 20 123 52 103 234 269 370 337 53 27 133 51 321 95 138 32 257 59 267 60
11 1 22 -17 37 -61z m-1724 -2 c84 -38 127 -110 126 -209 0 -113 -66 -181
-188 -193 -116 -12 -236 48 -264 133 -21 63 -17 154 9 210 22 46 27 50 80 65
88 25 177 22 237 -6z m-6935 -781 c157 -20 299 -42 317 -50 62 -27 109 -137
125 -289 13 -119 0 -234 -35 -301 -12 -25 -99 -133 -192 -240 l-170 -194 -48
47 c-138 134 -276 429 -312 669 -15 98 -20 328 -9 371 4 12 14 22 23 22 9 0
144 -16 301 -35z m6990 -176 c75 -35 150 -97 215 -177 30 -37 145 -206 255
-377 225 -349 214 -312 108 -366 -278 -141 -986 -140 -1360 3 l-78 29 0 137 0
137 149 240 c157 253 201 309 272 346 94 48 147 59 269 56 99 -2 123 -6 170
-28z m-6108 -1073 l-3 -304 -58 13 c-74 18 -150 48 -201 80 l-41 26 23 37 c13
21 79 131 148 245 69 113 127 206 130 207 3 0 4 -137 2 -304z"/>
</g>
</svg>
