<?xml version="1.0" standalone="no"?>
<!DOCTYPE svg PUBLIC "-//W3C//DTD SVG 20010904//EN"
 "http://www.w3.org/TR/2001/REC-SVG-20010904/DTD/svg10.dtd">
<svg version="1.0" xmlns="http://www.w3.org/2000/svg"
 width="1280.000000pt" height="640.000000pt" viewBox="0 0 1280.000000 640.000000"
 preserveAspectRatio="xMidYMid meet">
<metadata>
Created by potrace 1.15, written by Peter Selinger 2001-2017
</metadata>
<g transform="translate(0.000000,640.000000) scale(0.100000,-0.100000)"
fill="#000000" stroke="none">
<path d="M3745 5169 c-25 -23 -54 -57 -66 -76 -16 -26 -24 -31 -34 -23 -7 6
-30 19 -50 29 -38 18 -38 18 -79 -5 -23 -13 -74 -31 -115 -40 -62 -14 -75 -14
-82 -3 -5 9 -9 10 -9 2 0 -16 -68 -56 -84 -50 -33 13 -43 -180 -21 -393 25
-252 20 -456 -14 -518 -10 -19 -80 502 -87 656 -4 77 -12 139 -19 149 -38 51
-72 -56 -55 -172 20 -139 22 -425 6 -757 -20 -419 -20 -527 4 -893 11 -165 20
-381 20 -480 -1 -159 -2 -177 -15 -155 -12 22 -14 23 -20 7 -4 -9 -5 -27 -2
-38 3 -12 1 -33 -4 -47 -17 -45 -12 -172 11 -272 16 -68 23 -138 26 -245 2
-82 13 -227 24 -321 11 -94 20 -193 20 -219 l0 -48 25 23 c29 27 30 27 43 -20
10 -32 11 -33 17 -12 5 15 13 21 24 17 9 -3 68 -12 131 -20 160 -21 320 -20
422 4 308 72 541 93 1133 101 275 3 490 7 479 8 -31 3 -46 26 -38 57 6 25 5
27 -16 20 -37 -12 -327 -9 -560 5 -118 7 -286 11 -374 8 l-158 -4 53 18 c144
50 324 57 624 24 111 -12 133 -12 304 10 159 20 193 27 247 54 34 17 74 44 87
59 31 37 43 115 22 147 -14 21 -12 23 35 43 27 12 61 21 75 21 22 0 25 4 20
19 -4 14 1 25 19 36 l25 17 -35 62 c-19 35 -34 72 -34 83 0 27 -9 34 -32 22
-26 -14 -45 3 -59 55 -18 67 -14 66 -182 59 -104 -4 -228 0 -392 12 -359 27
-440 26 -621 -13 -144 -31 -284 -42 -284 -23 0 13 75 78 99 86 45 14 18 21
-51 13 -109 -13 -190 -13 -215 0 l-22 12 -1 493 c0 452 1 499 19 582 55 253
54 461 -5 980 -44 387 -53 496 -59 684 -3 111 -10 190 -16 198 -21 24 -58 14
-104 -28z"/>
<path d="M10998 5191 c-100 -22 -243 -65 -408 -123 -63 -22 -140 -43 -171 -45
-50 -5 -58 -3 -72 17 -14 21 -20 22 -89 15 -52 -5 -83 -14 -108 -30 -19 -13
-66 -38 -105 -56 -183 -82 -215 -99 -254 -135 -23 -20 -47 -46 -53 -57 -12
-23 -12 -23 80 40 35 24 73 43 85 43 19 0 16 -5 -20 -42 -22 -24 -43 -55 -47
-70 -3 -14 -17 -39 -30 -55 -39 -46 -76 -105 -76 -119 0 -8 6 -14 14 -14 8 0
17 -4 20 -9 3 -5 -59 -188 -138 -407 -79 -220 -175 -493 -214 -609 -71 -208
-71 -211 -83 -370 -45 -619 109 -1158 438 -1526 75 -84 177 -180 208 -196 40
-21 272 -93 375 -117 196 -46 321 -60 540 -60 204 -1 265 6 370 41 68 22 252
125 425 238 44 29 135 76 203 105 67 29 142 67 165 84 l42 31 -40 3 c-67 5
-74 12 -34 32 92 48 170 185 199 353 6 34 20 91 31 126 10 35 19 78 19 96 0
31 1 32 52 38 37 5 59 14 75 31 26 28 120 66 163 66 32 0 41 16 13 23 -16 4
-16 5 2 13 11 5 39 22 62 38 l43 29 -30 34 c-17 18 -30 36 -30 38 0 2 21 13
46 24 l46 21 -4 52 c-2 37 1 52 9 51 8 -2 7 6 -3 25 -7 15 -14 37 -14 50 0 14
-6 22 -16 22 -31 0 5 27 51 39 44 11 78 46 58 60 -6 3 -13 18 -17 34 -6 26 -9
27 -62 25 -45 -2 -59 1 -68 15 -9 15 -7 21 12 35 13 10 21 24 17 32 -4 12 -35
16 -148 20 -254 8 -317 5 -370 -18 -57 -26 -58 -26 -55 -10 5 20 -71 27 -192
17 -240 -19 -732 -94 -800 -122 -19 -8 -61 -20 -93 -27 -32 -6 -69 -22 -84
-34 -21 -18 -24 -27 -18 -54 3 -17 10 -34 14 -37 5 -2 33 1 63 7 30 6 63 8 73
5 17 -7 17 -8 0 -27 -10 -11 -29 -20 -42 -20 -13 0 -34 -11 -46 -25 -12 -14
-39 -43 -59 -65 -39 -41 -42 -64 -7 -75 11 -4 17 -11 14 -16 -4 -5 1 -12 9
-15 22 -8 20 -24 -2 -24 -11 0 -27 -9 -37 -20 -10 -11 -29 -20 -41 -20 -22 0
-23 -2 -12 -26 9 -20 9 -30 -1 -46 -7 -11 -11 -21 -9 -22 2 -2 75 -10 163 -20
228 -24 229 -25 89 -58 -65 -15 -141 -31 -167 -34 -34 -5 -47 -11 -43 -20 3
-7 -4 -20 -15 -27 -18 -13 -15 -15 33 -20 79 -10 142 -9 251 5 73 9 100 9 105
1 5 -8 23 -8 67 2 37 9 63 11 70 5 7 -6 16 -5 23 2 6 6 18 8 27 4 14 -5 16
-15 10 -59 -4 -28 -17 -79 -30 -112 -13 -33 -26 -73 -30 -90 -13 -60 -61 -123
-203 -267 -135 -137 -149 -148 -197 -159 -48 -11 -58 -9 -161 26 -149 51 -152
53 -240 150 -179 195 -303 398 -360 590 -23 77 -28 112 -30 239 -2 82 -6 151
-9 154 -11 11 -4 198 10 301 26 172 71 327 197 663 64 174 124 350 133 391 20
96 54 196 95 277 39 77 136 222 156 233 9 5 35 -3 72 -25 31 -18 62 -32 67
-30 10 2 146 -104 175 -136 8 -9 35 -30 59 -47 50 -34 85 -76 117 -143 25 -50
28 -44 15 26 -10 49 -3 53 26 14 59 -80 97 -182 129 -354 19 -103 69 -188 110
-188 2 0 4 7 4 15 0 29 46 48 101 41 55 -7 99 10 99 39 0 12 28 35 43 35 3 0
25 -16 49 -36 l43 -37 5 44 c6 56 25 60 90 20 54 -33 70 -38 70 -20 0 6 -22
140 -49 298 -70 401 -119 530 -253 663 -33 32 -59 60 -57 62 9 9 98 -29 148
-62 107 -71 171 -194 226 -437 30 -135 59 -239 82 -302 14 -39 19 -43 49 -43
33 0 34 2 34 38 -1 50 -29 211 -76 426 l-38 177 -79 80 c-135 134 -259 218
-436 292 -239 100 -424 127 -603 88z m1101 -2888 c-19 -39 -24 -44 -30 -27 -4
10 -8 36 -8 56 -1 31 3 38 27 46 23 7 28 6 30 -10 2 -10 -7 -40 -19 -65z"/>
<path d="M1088 5173 c63 -8 31 -20 -70 -26 -57 -3 -157 -16 -223 -28 -124 -23
-159 -25 -210 -14 -48 10 -81 -22 -89 -87 -8 -64 -25 -118 -36 -118 -4 0 -14
29 -21 65 -14 72 -28 81 -70 46 -22 -18 -26 -18 -41 -4 -17 15 -18 11 -18 -75
0 -245 -47 -655 -155 -1342 -41 -261 -83 -545 -94 -630 -52 -401 -72 -826 -50
-1040 8 -74 13 -180 13 -235 l-1 -100 41 3 c22 2 48 11 58 19 28 25 58 110 66
185 l8 73 18 -34 c14 -27 16 -45 11 -93 -9 -78 6 -118 45 -118 16 0 30 -7 34
-15 3 -8 13 -15 21 -15 9 0 58 -13 108 -29 441 -142 824 -168 1117 -75 88 27
195 77 262 121 43 29 64 24 27 -6 -124 -102 -395 -196 -710 -247 l-106 -17
-206 34 c-156 26 -207 31 -207 22 0 -7 -5 -13 -11 -13 -6 0 -9 6 -6 13 2 8
-31 21 -102 40 -58 15 -134 41 -169 57 l-63 30 43 -49 c42 -48 46 -50 173 -85
424 -116 736 -126 1014 -32 69 23 459 266 624 389 97 72 232 206 240 239 7 28
33 56 100 111 50 41 61 63 25 51 -22 -7 -22 -7 -4 22 10 16 30 42 45 57 18 20
21 26 9 22 -29 -11 -31 17 -9 128 11 57 17 114 14 125 -9 34 21 68 75 86 28 9
57 25 66 35 14 16 15 22 2 58 -35 98 -110 216 -195 307 -62 65 -327 298 -357
313 -10 6 -35 13 -55 17 -21 4 -49 16 -63 27 -24 19 -25 22 -12 47 19 36 59
72 128 116 31 20 60 41 64 48 7 12 -15 -1 -71 -39 -26 -17 -65 -17 -65 1 0 8
20 31 45 51 25 21 42 42 39 47 -3 5 12 36 35 68 30 42 41 68 41 94 l0 37 -30
-16 c-29 -15 -31 -15 -40 10 -13 34 -13 40 3 54 8 6 19 28 25 50 12 38 33 61
132 140 41 33 86 113 74 133 -3 5 3 12 15 15 22 6 27 28 11 53 -6 10 -4 20 7
32 15 17 14 23 -16 90 -50 114 -152 259 -233 330 -39 35 -118 107 -175 160
-89 83 -122 106 -216 152 -129 64 -230 99 -362 126 -101 22 -259 41 -315 38
l-35 -1 33 -4z m-178 -93 c0 -5 -2 -10 -4 -10 -3 0 -8 5 -11 10 -3 6 -1 10 4
10 6 0 11 -4 11 -10z m-370 -70 c0 -5 -4 -10 -10 -10 -5 0 -10 5 -10 10 0 6 5
10 10 10 6 0 10 -4 10 -10z m360 -430 c0 -40 -3 -50 -16 -50 -14 0 -15 7 -10
38 3 20 6 43 6 50 0 6 5 12 10 12 6 0 10 -22 10 -50z m310 10 c85 -12 184 -30
220 -40 83 -25 174 -78 225 -133 22 -23 57 -55 77 -71 37 -27 56 -61 43 -74
-3 -4 -41 30 -83 75 -45 48 -87 84 -102 86 -14 3 -52 9 -85 14 -33 5 -160 27
-282 48 l-223 39 0 44 c0 42 1 43 28 38 15 -3 97 -15 182 -26z m-754 -24 c3
-7 -2 -29 -10 -47 l-14 -34 -1 48 c-1 44 13 64 25 33z m431 -125 c-53 -423
-90 -630 -119 -656 -8 -7 -9 -5 -4 9 10 30 64 420 76 556 14 149 15 151 36
143 13 -5 15 -15 11 -52z m238 29 c171 -25 366 -88 480 -155 72 -42 158 -118
195 -173 19 -28 40 -52 45 -52 12 -1 76 -128 75 -150 0 -12 -20 -19 -78 -27
-43 -7 -191 -39 -328 -73 -299 -74 -370 -87 -521 -96 l-115 -7 6 54 c4 30 20
124 36 209 43 226 60 339 60 395 0 82 7 96 44 90 17 -3 63 -10 101 -15z m-679
-47 c-17 -54 -136 -839 -176 -1158 -65 -516 -83 -772 -78 -1117 2 -203 0 -255
-9 -245 -20 19 -28 370 -14 602 19 324 44 518 161 1290 33 215 67 447 76 518
13 95 21 127 31 127 9 0 12 -7 9 -17z m274 -933 c0 -5 -4 -10 -10 -10 -5 0
-10 5 -10 10 0 6 5 10 10 10 6 0 10 -4 10 -10z m145 -30 c3 -6 -4 -10 -17 -10
-18 0 -20 2 -8 10 19 12 18 12 25 0z m1103 -30 c-32 -39 -72 -60 -86 -45 -4 4
-2 10 4 12 7 2 34 19 60 38 27 19 50 35 52 35 2 0 -12 -18 -30 -40z m48 -420
c15 -6 25 -13 22 -15 -6 -6 -98 25 -98 32 0 6 37 -2 76 -17z m-266 -185 c92
-21 222 -81 275 -129 l40 -36 -48 20 c-175 72 -372 109 -617 117 -225 7 -381
-7 -620 -53 l-35 -7 19 21 c29 33 64 40 336 61 140 12 271 23 290 25 71 9 287
-3 360 -19z m-200 -90 c157 -21 253 -50 380 -113 120 -59 120 -60 188 -173
l22 -37 -122 -80 c-361 -235 -629 -334 -908 -335 -130 0 -231 16 -325 52 l-50
19 -3 310 -2 310 27 6 c264 52 588 69 793 41z m-923 -252 c-3 -98 -10 -191
-15 -208 -6 -20 -4 -47 5 -83 14 -53 10 -92 -8 -92 -19 0 -26 46 -21 128 4 72
2 87 -15 110 -18 24 -18 31 -7 62 7 19 13 31 13 27 1 -5 6 -5 12 -1 8 5 8 8 0
14 -9 5 -9 31 -1 101 13 109 15 119 31 119 9 0 10 -46 6 -177z m1354 -783
c-13 -11 -28 -20 -35 -20 -6 0 0 9 14 20 33 26 52 25 21 0z m-86 -59 c-3 -6
-11 -11 -17 -11 -6 0 -6 6 2 15 14 17 26 13 15 -4z m-245 -81 c-8 -5 -19 -10
-25 -10 -5 0 -3 5 5 10 8 5 20 10 25 10 6 0 3 -5 -5 -10z m-1280 -120 c0 -5
-4 -10 -10 -10 -5 0 -10 5 -10 10 0 6 5 10 10 10 6 0 10 -4 10 -10z"/>
<path d="M1025 2499 c-22 -10 -29 -16 -15 -13 38 10 87 32 70 32 -8 0 -33 -8
-55 -19z"/>
<path d="M506 5141 c-3 -4 6 -6 19 -3 14 2 25 6 25 8 0 8 -39 4 -44 -5z"/>
<path d="M4010 5075 c0 -19 5 -35 10 -35 6 0 10 16 10 35 0 19 -4 35 -10 35
-5 0 -10 -16 -10 -35z"/>
<path d="M7496 5037 c-39 -10 -100 -24 -136 -31 -36 -7 -116 -29 -177 -49
-114 -37 -180 -45 -228 -27 -24 9 -46 -2 -223 -111 -184 -113 -355 -231 -382
-263 -8 -11 -8 -16 4 -23 13 -7 5 -21 -40 -78 -141 -176 -271 -404 -328 -576
-33 -100 -58 -255 -55 -349 2 -76 -34 -270 -50 -270 -9 0 -27 106 -36 215 -22
257 96 581 317 867 94 120 105 138 52 83 -130 -137 -236 -288 -314 -447 -27
-54 -50 -103 -53 -110 -4 -10 -8 -10 -16 2 -12 17 -14 9 -11 -34 1 -20 -8 -38
-31 -62 l-32 -33 6 -193 c8 -264 37 -453 118 -768 54 -211 182 -591 189 -562
4 17 25 -13 98 -144 52 -91 91 -172 88 -179 -4 -13 107 -175 120 -175 2 0 -5
17 -16 37 -11 21 -20 41 -20 46 0 4 27 -13 61 -39 36 -27 130 -78 229 -124
176 -81 274 -135 304 -169 18 -20 18 -21 -35 -46 l-54 -25 45 5 c95 11 436 17
460 8 23 -10 22 -11 -20 -26 l-45 -15 73 -1 c46 -1 81 -6 95 -16 20 -13 31
-12 97 4 48 11 85 15 102 10 59 -16 291 60 434 144 209 123 366 288 458 480
37 78 59 154 140 487 131 542 148 624 176 853 34 275 -4 657 -74 757 -18 25
-138 194 -266 375 -300 423 -340 474 -396 503 -65 33 -182 60 -314 71 -190 18
-239 17 -314 -2z m-51 -504 c77 -61 217 -231 420 -514 186 -259 190 -266 213
-354 18 -68 25 -127 29 -242 9 -248 -18 -410 -151 -896 -76 -279 -89 -316
-136 -400 -29 -50 -64 -107 -78 -125 -24 -32 -88 -72 -113 -72 -7 0 -64 34
-126 76 -390 260 -660 556 -762 839 -48 133 -62 223 -63 393 0 123 5 172 23
257 22 100 39 134 39 80 0 -35 86 -263 95 -253 2 2 -3 26 -11 54 -21 71 -30
222 -22 340 9 111 43 244 88 342 35 76 116 195 165 242 31 30 35 40 35 84 0
59 7 71 37 73 26 2 103 61 103 79 0 7 5 16 11 20 8 5 10 -3 7 -25 -5 -32 5
-43 16 -16 8 23 68 55 102 55 20 0 47 -13 79 -37z m-1419 -1653 c57 -279 89
-405 129 -505 30 -76 7 -46 -46 57 -88 175 -143 414 -154 675 -6 142 -5 139
71 -227z"/>
<path d="M6900 2874 c-29 -138 32 -244 249 -434 l75 -65 -90 111 c-123 154
-153 208 -186 332 -15 57 -29 106 -32 109 -2 2 -10 -21 -16 -53z"/>
<path d="M4036 4884 c-4 -12 1 -25 15 -38 l21 -21 -6 30 c-9 39 -22 51 -30 29z"/>
<path d="M4057 4601 c-3 -14 0 -21 9 -21 16 0 18 9 5 28 -6 10 -10 9 -14 -7z"/>
<path d="M4080 4320 c0 -11 5 -20 10 -20 6 0 10 9 10 20 0 11 -4 20 -10 20 -5
0 -10 -9 -10 -20z"/>
<path d="M9477 4213 c-41 -96 -70 -198 -53 -182 8 8 106 282 102 287 -2 2 -24
-46 -49 -105z"/>
<path d="M4142 4028 c9 -57 18 -125 18 -153 2 -99 16 -91 33 21 14 85 15 117
6 148 -10 37 -48 86 -66 86 -5 0 -1 -46 9 -102z"/>
<path d="M4064 3919 c10 -40 11 -41 14 -15 2 16 -3 35 -11 43 -13 13 -13 10
-3 -28z"/>
<path d="M9346 3695 c-68 -179 -134 -448 -156 -638 -18 -153 -7 -424 24 -587
27 -142 90 -340 136 -426 17 -33 28 -50 24 -39 -102 295 -139 441 -155 618 -5
62 -15 149 -21 194 -24 175 0 306 122 678 74 223 87 272 76 283 -11 11 -19 -3
-50 -83z"/>
<path d="M4150 3655 c0 -14 5 -25 10 -25 6 0 10 11 10 25 0 14 -4 25 -10 25
-5 0 -10 -11 -10 -25z"/>
<path d="M4116 3478 c-4 -62 -9 -149 -11 -193 -8 -128 3 -74 20 105 9 91 18
173 21 183 3 10 0 17 -9 17 -11 0 -16 -24 -21 -112z"/>
<path d="M4070 3053 c1 -10 8 -29 16 -43 l15 -25 -5 25 c-3 14 -6 33 -6 43 0
9 -4 17 -10 17 -5 0 -10 -8 -10 -17z"/>
<path d="M12455 2420 c19 -8 153 -14 144 -6 -2 2 -40 6 -84 9 -48 3 -72 2 -60
-3z"/>
<path d="M4640 2269 c0 -5 5 -7 10 -4 6 3 10 8 10 11 0 2 -4 4 -10 4 -5 0 -10
-5 -10 -11z"/>
<path d="M6177 1958 c54 -117 137 -268 147 -268 6 0 -194 399 -203 404 -5 4
20 -58 56 -136z"/>
<path d="M9424 1870 c15 -25 38 -66 53 -93 14 -26 28 -45 31 -43 7 7 -67 138
-90 161 -17 16 -15 11 6 -25z"/>
<path d="M9590 1595 c7 -9 15 -13 17 -11 7 7 -7 26 -19 26 -6 0 -6 -6 2 -15z"/>
<path d="M9660 1515 c0 -2 9 -9 20 -15 16 -9 18 -8 14 5 -5 13 -34 22 -34 10z"/>
<path d="M200 1485 c0 -2 19 -14 43 -25 l42 -21 -30 26 c-27 22 -55 33 -55 20z"/>
<path d="M770 1430 c0 -5 5 -10 10 -10 6 0 10 5 10 10 0 6 -4 10 -10 10 -5 0
-10 -4 -10 -10z"/>
<path d="M6710 1412 c0 -5 12 -14 27 -21 28 -13 28 -13 9 8 -20 22 -36 27 -36
13z"/>
<path d="M970 1390 c0 -5 5 -10 10 -10 6 0 10 5 10 10 0 6 -4 10 -10 10 -5 0
-10 -4 -10 -10z"/>
<path d="M5450 1345 c0 -2 10 -10 23 -16 20 -11 21 -11 8 4 -13 16 -31 23 -31
12z"/>
<path d="M728 1223 c7 -3 16 -2 19 1 4 3 -2 6 -13 5 -11 0 -14 -3 -6 -6z"/>
<path d="M10420 1200 c0 -5 5 -10 10 -10 6 0 10 5 10 10 0 6 -4 10 -10 10 -5
0 -10 -4 -10 -10z"/>
<path d="M10880 1200 c0 -5 5 -10 10 -10 6 0 10 5 10 10 0 6 -4 10 -10 10 -5
0 -10 -4 -10 -10z"/>
<path d="M3533 1193 c15 -2 37 -2 50 0 12 2 0 4 -28 4 -27 0 -38 -2 -22 -4z"/>
</g>
</svg>
