<?xml version="1.0" standalone="no"?>
<!DOCTYPE svg PUBLIC "-//W3C//DTD SVG 20010904//EN"
 "http://www.w3.org/TR/2001/REC-SVG-20010904/DTD/svg10.dtd">
<svg version="1.0" xmlns="http://www.w3.org/2000/svg"
 width="1280.000000pt" height="1086.000000pt" viewBox="0 0 1280.000000 1086.000000"
 preserveAspectRatio="xMidYMid meet">
<metadata>
Created by potrace 1.15, written by Peter Selinger 2001-2017
</metadata>
<g transform="translate(0.000000,1086.000000) scale(0.100000,-0.100000)"
fill="#000000" stroke="none">
<path d="M0 5430 l0 -5430 6400 0 6400 0 0 5430 0 5430 -6400 0 -6400 0 0
-5430z m2290 3865 l0 -725 -660 0 -660 0 0 725 0 725 660 0 660 0 0 -725z
m9540 0 l0 -725 -660 0 -660 0 0 725 0 725 660 0 660 0 0 -725z m-9540 -1935
l0 -720 -660 0 -660 0 0 720 0 720 660 0 660 0 0 -720z m9540 0 l0 -720 -660
0 -660 0 0 720 0 720 660 0 660 0 0 -720z m-4927 -660 c1130 -652 2052 -1188
2049 -1192 -8 -7 -4151 -2398 -4169 -2405 -10 -4 -13 482 -13 2411 l0 2417 39
-23 c21 -13 963 -556 2094 -1208z m-4613 -1270 l0 -720 -660 0 -660 0 0 720 0
720 660 0 660 0 0 -720z m9540 0 l0 -720 -660 0 -660 0 0 720 0 720 660 0 660
0 0 -720z m-9540 -1930 l0 -720 -660 0 -660 0 0 720 0 720 660 0 660 0 0 -720z
m9540 0 l0 -720 -660 0 -660 0 0 720 0 720 660 0 660 0 0 -720z m-9540 -1935
l0 -725 -660 0 -660 0 0 725 0 725 660 0 660 0 0 -725z m9540 0 l0 -725 -660
0 -660 0 0 725 0 725 660 0 660 0 0 -725z"/>
</g>
</svg>
